<svg fill="white" xmlns="http://www.w3.org/2000/svg"  viewBox="0 0 80 80" width="80px" height="80px"><path d="M 40 7 C 21.786552 7 7 21.786552 7 40 C 7 58.213448 21.786552 73 40 73 C 58.213448 73 73 58.213448 73 40 C 73 21.786552 58.213448 7 40 7 z M 40 9 C 57.132552 9 71 22.867448 71 40 C 71 57.132552 57.132552 71 40 71 C 22.867448 71 9 57.132552 9 40 C 9 22.867448 22.867448 9 40 9 z M 40 12 C 39.448 12 39 12.448 39 13 C 39 13.552 39.448 14 40 14 C 40.552 14 41 13.552 41 13 C 41 12.448 40.552 12 40 12 z M 34.539062 12.537109 C 33.997062 12.645109 33.646906 13.172844 33.753906 13.714844 C 33.860906 14.256844 34.387687 14.607 34.929688 14.5 C 35.471688 14.392 35.821844 13.866219 35.714844 13.324219 C 35.606844 12.782219 35.080062 12.429109 34.539062 12.537109 z M 45.462891 12.537109 C 44.920891 12.430109 44.395109 12.780266 44.287109 13.322266 C 44.179109 13.864266 44.530266 14.390047 45.072266 14.498047 C 45.614266 14.606047 46.140047 14.254891 46.248047 13.712891 C 46.356047 13.170891 46.004891 12.645109 45.462891 12.537109 z M 29.673828 14.054688 C 29.543953 14.053703 29.412656 14.078109 29.285156 14.130859 C 28.775156 14.341859 28.532141 14.9265 28.744141 15.4375 C 28.956141 15.9485 29.539781 16.190516 30.050781 15.978516 C 30.561781 15.766516 30.803797 15.182875 30.591797 14.671875 C 30.432797 14.289375 30.063453 14.057641 29.673828 14.054688 z M 50.324219 14.054688 C 49.934219 14.057641 49.566453 14.289375 49.408203 14.671875 C 49.197203 15.181875 49.439219 15.766516 49.949219 15.978516 C 50.459219 16.189516 51.043859 15.9475 51.255859 15.4375 C 51.466859 14.9275 51.224844 14.342859 50.714844 14.130859 C 50.587094 14.078109 50.454219 14.053703 50.324219 14.054688 z M 24.810547 16.566406 C 24.682984 16.590734 24.558109 16.640297 24.443359 16.716797 C 23.984359 17.023797 23.860969 17.644516 24.167969 18.103516 C 24.474969 18.562516 25.095688 18.687859 25.554688 18.380859 C 26.013687 18.073859 26.137078 17.451188 25.830078 16.992188 C 25.599828 16.647938 25.193234 16.493422 24.810547 16.566406 z M 55.1875 16.566406 C 54.804813 16.493047 54.398219 16.649141 54.167969 16.994141 C 53.860969 17.453141 53.984359 18.073859 54.443359 18.380859 C 54.902359 18.687859 55.523078 18.564469 55.830078 18.105469 C 56.137078 17.646469 56.013687 17.02575 55.554688 16.71875 C 55.439937 16.642 55.315062 16.590859 55.1875 16.566406 z M 20.908203 19.908203 C 20.652203 19.908203 20.396172 20.005672 20.201172 20.201172 C 19.810172 20.592172 19.810172 21.225234 20.201172 21.615234 C 20.592172 22.006234 21.225234 22.006234 21.615234 21.615234 C 22.006234 21.224234 22.006234 20.591172 21.615234 20.201172 C 21.420234 20.005672 21.164203 19.908203 20.908203 19.908203 z M 59.091797 19.908203 C 58.835922 19.908203 58.580266 20.006172 58.384766 20.201172 C 57.993766 20.592172 57.993766 21.225234 58.384766 21.615234 C 58.775766 22.006234 59.408828 22.006234 59.798828 21.615234 C 60.189828 21.224234 60.189828 20.591172 59.798828 20.201172 C 59.603828 20.006172 59.347672 19.908203 59.091797 19.908203 z M 62.261719 24.015625 C 62.134031 24.04 62.009531 24.089266 61.894531 24.166016 C 61.435531 24.473016 61.310187 25.093734 61.617188 25.552734 C 61.924188 26.011734 62.546859 26.135125 63.005859 25.828125 C 63.464859 25.521125 63.58825 24.900406 63.28125 24.441406 C 63.05175 24.097156 62.644781 23.9425 62.261719 24.015625 z M 17.738281 24.017578 C 17.355594 23.944453 16.949 24.099109 16.71875 24.443359 C 16.41175 24.902359 16.535141 25.523078 16.994141 25.830078 C 17.453141 26.137078 18.075812 26.013688 18.382812 25.554688 C 18.689812 25.095688 18.564469 24.474969 18.105469 24.167969 C 17.990719 24.091219 17.865844 24.041953 17.738281 24.017578 z M 32.828125 28.373047 L 32.828125 51.625 L 36.115234 51.625 L 36.115234 41.763672 L 46.251953 41.763672 L 46.251953 38.896484 L 36.115234 38.896484 L 36.115234 31.291016 L 47.171875 31.291016 L 47.171875 28.373047 L 32.828125 28.373047 z M 64.951172 28.666016 C 64.821172 28.665031 64.69025 28.689438 64.5625 28.742188 C 64.0525 28.953187 63.809484 29.539781 64.021484 30.050781 C 64.232484 30.560781 64.817125 30.803797 65.328125 30.591797 C 65.838125 30.380797 66.081141 29.794203 65.869141 29.283203 C 65.710891 28.900703 65.341172 28.668969 64.951172 28.666016 z M 15.048828 28.667969 C 14.658828 28.670547 14.291062 28.901906 14.132812 29.285156 C 13.921812 29.795156 14.163828 30.379797 14.673828 30.591797 C 15.183828 30.802797 15.768469 30.560781 15.980469 30.050781 C 16.191469 29.540781 15.949453 28.956141 15.439453 28.744141 C 15.311703 28.691141 15.178828 28.667109 15.048828 28.667969 z M 13.716797 33.751953 C 13.174797 33.644953 12.647062 33.995109 12.539062 34.537109 C 12.431062 35.079109 12.784172 35.606844 13.326172 35.714844 C 13.868172 35.822844 14.393953 35.469734 14.501953 34.927734 C 14.609953 34.385734 14.258797 33.859953 13.716797 33.751953 z M 66.287109 33.751953 C 65.745109 33.859953 65.394953 34.385734 65.501953 34.927734 C 65.609953 35.469734 66.135734 35.821844 66.677734 35.714844 C 67.219734 35.606844 67.569891 35.079109 67.462891 34.537109 C 67.354891 33.995109 66.829109 33.643953 66.287109 33.751953 z M 13 39 C 12.448 39 12 39.448 12 40 C 12 40.552 12.448 41 13 41 C 13.552 41 14 40.552 14 40 C 14 39.448 13.552 39 13 39 z M 67 39 C 66.448 39 66 39.448 66 40 C 66 40.552 66.448 41 67 41 C 67.552 41 68 40.552 68 40 C 68 39.448 67.552 39 67 39 z M 66.677734 44.285156 C 66.135734 44.177156 65.609953 44.530266 65.501953 45.072266 C 65.393953 45.614266 65.745109 46.140047 66.287109 46.248047 C 66.829109 46.356047 67.356844 46.004891 67.464844 45.462891 C 67.572844 44.920891 67.219734 44.393156 66.677734 44.285156 z M 13.324219 44.287109 C 12.782219 44.395109 12.430109 44.920891 12.537109 45.462891 C 12.645109 46.004891 13.172844 46.355047 13.714844 46.248047 C 14.256844 46.140047 14.607 45.614266 14.5 45.072266 C 14.393 44.530266 13.866219 44.179109 13.324219 44.287109 z M 64.9375 49.330078 C 64.547875 49.332891 64.180484 49.564766 64.021484 49.947266 C 63.810484 50.457266 64.0525 51.043859 64.5625 51.255859 C 65.0725 51.466859 65.657141 51.224844 65.869141 50.714844 C 66.080141 50.204844 65.838125 49.61825 65.328125 49.40625 C 65.200625 49.35325 65.067375 49.329141 64.9375 49.330078 z M 15.0625 49.332031 C 14.932625 49.331094 14.801328 49.355203 14.673828 49.408203 C 14.163828 49.619203 13.920812 50.203844 14.132812 50.714844 C 14.343813 51.224844 14.928453 51.467859 15.439453 51.255859 C 15.949453 51.044859 16.192469 50.460219 15.980469 49.949219 C 15.821469 49.566719 15.452125 49.334844 15.0625 49.332031 z M 62.638672 54.015625 C 62.255984 53.9425 61.849391 54.097156 61.619141 54.441406 C 61.312141 54.900406 61.435531 55.521125 61.894531 55.828125 C 62.353531 56.135125 62.97425 56.011734 63.28125 55.552734 C 63.58825 55.093734 63.464859 54.473016 63.005859 54.166016 C 62.891109 54.089266 62.766234 54.04 62.638672 54.015625 z M 17.363281 54.017578 C 17.235719 54.041953 17.110844 54.091219 16.996094 54.167969 C 16.537094 54.474969 16.413703 55.095687 16.720703 55.554688 C 17.027703 56.013688 17.648422 56.137078 18.107422 55.830078 C 18.566422 55.523078 18.689813 54.902359 18.382812 54.443359 C 18.152563 54.099109 17.745969 53.944453 17.363281 54.017578 z M 20.908203 58.091797 C 20.652203 58.091797 20.396172 58.189266 20.201172 58.384766 C 19.810172 58.775766 19.810172 59.408828 20.201172 59.798828 C 20.592172 60.189828 21.225234 60.189828 21.615234 59.798828 C 22.006234 59.407828 22.006234 58.774766 21.615234 58.384766 C 21.420234 58.189266 21.164203 58.091797 20.908203 58.091797 z M 59.091797 58.091797 C 58.835797 58.091797 58.579766 58.189766 58.384766 58.384766 C 57.993766 58.775766 57.993766 59.408828 58.384766 59.798828 C 58.775766 60.189828 59.408828 60.189828 59.798828 59.798828 C 60.189828 59.407828 60.189828 58.774766 59.798828 58.384766 C 59.603828 58.189766 59.347797 58.091797 59.091797 58.091797 z M 25.191406 61.464844 C 24.808484 61.391719 24.401375 61.548328 24.171875 61.892578 C 23.864875 62.351578 23.988266 62.972297 24.447266 63.279297 C 24.906266 63.586297 25.526984 63.462906 25.833984 63.003906 C 26.140984 62.544906 26.017594 61.922234 25.558594 61.615234 C 25.443844 61.538484 25.319047 61.489219 25.191406 61.464844 z M 54.8125 61.464844 C 54.684937 61.489219 54.560063 61.538484 54.445312 61.615234 C 53.986312 61.922234 53.862922 62.544906 54.169922 63.003906 C 54.476922 63.462906 55.097641 63.586297 55.556641 63.279297 C 56.015641 62.972297 56.139031 62.351578 55.832031 61.892578 C 55.601781 61.548328 55.195188 61.391719 54.8125 61.464844 z M 29.662109 63.943359 C 29.272484 63.946312 28.903141 64.178047 28.744141 64.560547 C 28.533141 65.070547 28.775156 65.655188 29.285156 65.867188 C 29.795156 66.079188 30.38175 65.836172 30.59375 65.326172 C 30.80475 64.816172 30.562734 64.231531 30.052734 64.019531 C 29.925234 63.966781 29.791984 63.942375 29.662109 63.943359 z M 50.339844 63.943359 C 50.209844 63.942375 50.076969 63.966781 49.949219 64.019531 C 49.439219 64.230531 49.196203 64.815172 49.408203 65.326172 C 49.619203 65.836172 50.205797 66.079188 50.716797 65.867188 C 51.226797 65.656188 51.469813 65.071547 51.257812 64.560547 C 51.099562 64.178047 50.729844 63.946312 50.339844 63.943359 z M 34.929688 65.498047 C 34.387687 65.391047 33.861906 65.743156 33.753906 66.285156 C 33.645906 66.827156 33.997062 67.352938 34.539062 67.460938 C 35.081063 67.568938 35.606844 67.217781 35.714844 66.675781 C 35.822844 66.133781 35.471688 65.606047 34.929688 65.498047 z M 45.072266 65.501953 C 44.530266 65.609953 44.180109 66.135734 44.287109 66.677734 C 44.394109 67.219734 44.920891 67.569891 45.462891 67.462891 C 46.004891 67.354891 46.355047 66.829109 46.248047 66.287109 C 46.141047 65.745109 45.614266 65.393953 45.072266 65.501953 z M 40 66 C 39.448 66 39 66.448 39 67 C 39 67.552 39.448 68 40 68 C 40.552 68 41 67.552 41 67 C 41 66.448 40.552 66 40 66 z"/></svg>